<?xml version="1.0" standalone="no"?>
<!DOCTYPE svg PUBLIC "-//W3C//DTD SVG 20010904//EN"
 "http://www.w3.org/TR/2001/REC-SVG-20010904/DTD/svg10.dtd">
<svg version="1.0" xmlns="http://www.w3.org/2000/svg"
 width="300.000000pt" height="300.000000pt" viewBox="0 0 300.000000 300.000000"
 preserveAspectRatio="xMidYMid meet">
<metadata>
Created by potrace 1.10, written by Peter Selinger 2001-2011
</metadata>
<g transform="translate(0.000000,300.000000) scale(0.100000,-0.100000)"
fill="#000000" stroke="none">
<path d="M0 1500 l0 -1500 1500 0 1500 0 0 1500 0 1500 -1500 0 -1500 0 0
-1500z m1808 964 c95 -33 220 -90 239 -110 8 -8 29 -22 46 -31 18 -9 51 -29
75 -45 23 -16 47 -26 54 -22 6 4 8 3 5 -4 -8 -12 81 -94 94 -86 5 3 9 12 9 21
0 19 74 176 101 214 10 15 29 29 41 32 13 3 49 13 82 21 40 10 66 12 83 5 29
-11 113 -78 113 -90 0 -5 11 -32 24 -61 63 -138 75 -445 23 -583 -11 -31 -77
-135 -77 -123 0 4 -14 -6 -32 -23 -38 -34 -75 -43 -163 -37 -44 3 -70 10 -84
23 -12 10 -24 15 -28 12 -3 -4 -2 -7 4 -7 13 0 13 -4 20 -140 5 -125 -4 -175
-42 -225 l-23 -31 24 -29 c40 -49 54 -116 54 -251 0 -195 -40 -293 -141 -349
-54 -30 -55 -30 -239 -33 -176 -4 -186 -3 -204 16 -17 19 -18 51 -19 526 -1
278 -5 506 -8 506 -3 0 -13 -6 -23 -13 -15 -11 -17 -17 -7 -35 15 -28 14 -671
-1 -752 -21 -121 -91 -212 -184 -240 -166 -50 -329 20 -389 166 -18 45 -19 80
-23 462 l-3 413 23 19 c23 20 23 20 -24 3 -46 -16 -60 -34 -38 -48 6 -4 10
-181 10 -499 0 -447 -2 -495 -17 -507 -11 -10 -46 -14 -119 -14 -153 0 -144
-17 -144 276 l0 239 -22 -4 -23 -3 -3 -240 c-2 -205 -5 -243 -18 -254 -11 -9
-49 -13 -120 -13 -159 0 -144 -51 -144 496 0 460 3 498 35 498 13 0 13 4 0 33
-10 22 -17 88 -22 207 l-8 175 -68 3 -67 3 -1 -118 c0 -142 -4 -175 -24 -213
-39 -76 -114 -79 -161 -6 -22 34 -33 116 -34 241 0 60 -1 61 -33 73 -40 14
-62 50 -53 85 3 14 21 40 40 59 l35 35 0 167 c0 168 3 190 24 183 7 -2 23 4
36 14 46 36 88 21 132 -49 25 -39 29 -56 29 -113 0 -36 3 -87 6 -113 7 -45 7
-46 44 -46 21 0 52 3 70 7 l33 6 -6 115 c-7 134 2 164 60 189 92 38 149 -16
154 -145 2 -42 6 -59 16 -59 8 0 11 7 7 19 -4 15 8 25 70 53 41 19 84 35 95
35 12 0 21 4 21 8 0 10 68 32 99 32 11 0 21 5 21 11 0 5 3 8 8 6 4 -3 48 1 97
9 106 16 128 17 121 5 -3 -4 -33 -11 -67 -15 -87 -10 -249 -52 -356 -93 -114
-44 -124 -61 -12 -22 152 54 496 134 541 125 41 -7 68 -48 68 -101 0 -42 -11
-48 -147 -86 -45 -12 -80 -26 -77 -30 3 -5 12 -9 20 -9 8 0 13 4 10 9 -7 11
84 21 129 14 28 -5 42 -15 61 -44 13 -22 27 -39 30 -39 4 0 0 8 -7 17 -10 12
-10 15 -1 9 8 -5 23 4 42 24 30 32 38 64 20 75 -13 8 -13 72 -1 80 6 3 4 17
-5 33 -21 40 -17 60 15 93 38 38 95 39 199 3z"/>
<path d="M1632 2454 c-26 -18 -30 -75 -7 -94 14 -12 14 -15 -1 -31 -14 -16
-15 -24 -1 -83 l15 -64 -24 -6 c-51 -13 -53 -85 -3 -101 17 -6 19 -9 8 -16
-11 -7 -9 -9 7 -9 12 0 26 -6 32 -12 12 -16 62 -316 62 -377 0 -33 6 -49 27
-72 34 -35 53 -36 83 -4 23 24 23 27 16 162 -3 76 -9 168 -13 206 l-6 67 51 0
c49 0 52 -1 76 -42 14 -23 60 -124 102 -225 l78 -183 53 0 c49 0 53 2 59 27
15 59 -37 202 -128 351 -21 34 -38 63 -38 65 0 1 46 -2 102 -7 97 -9 102 -8
118 12 17 20 17 18 12 -46 -10 -151 42 -314 121 -376 69 -55 191 -47 263 16
80 70 114 179 114 363 0 174 -57 393 -108 412 -9 4 -25 17 -35 30 -14 18 -28
23 -63 23 -64 0 -109 -22 -140 -69 -15 -23 -28 -41 -30 -41 -6 0 16 53 28 67
6 8 8 16 5 19 -7 8 -94 -164 -118 -235 -11 -30 -20 -66 -20 -80 -1 -21 -2 -22
-6 -6 -14 57 -220 214 -388 295 -159 76 -257 97 -303 64z m974 -181 c47 -113
65 -397 31 -505 -23 -73 -45 -100 -81 -100 -30 0 -71 25 -93 58 -12 19 -11 20
18 16 32 -5 32 -4 25 29 -18 90 -27 201 -21 269 7 71 43 207 65 240 14 22 12
10 -10 -55 -32 -94 -43 -220 -30 -343 6 -59 13 -109 16 -111 12 -12 13 14 3
85 -14 102 -6 250 21 355 30 116 32 118 56 62z m-731 -6 c55 -23 228 -117 223
-122 -11 -9 -138 22 -166 42 -41 27 -59 29 -83 7 -24 -22 -36 -12 -44 36 -4
25 -12 40 -21 40 -8 0 -14 7 -14 15 0 18 29 13 105 -18z m552 -219 c-2 -13 -4
-3 -4 22 0 25 2 35 4 23 2 -13 2 -33 0 -45z m-660 -100 c-2 -13 -4 -5 -4 17
-1 22 1 32 4 23 2 -10 2 -28 0 -40z m660 -75 c-3 -10 -5 -4 -5 12 0 17 2 24 5
18 2 -7 2 -21 0 -30z"/>
<path d="M2585 2233 c3 -13 2 -23 -3 -23 -27 0 -37 -69 -37 -250 0 -150 -3
-191 -15 -210 -25 -40 -20 -55 20 -55 33 0 36 3 58 57 23 58 24 73 21 273 -1
74 -25 205 -40 219 -8 8 -9 5 -4 -11z m-28 -275 c-2 -13 -4 -5 -4 17 -1 22 1
32 4 23 2 -10 2 -28 0 -40z"/>
<path d="M1836 2252 c-3 -3 -6 -14 -6 -25 0 -14 3 -17 13 -9 6 5 23 12 36 14
22 3 22 4 -7 14 -17 7 -33 9 -36 6z"/>
<path d="M275 2433 c-15 -14 -16 -32 -11 -132 4 -64 9 -142 12 -173 3 -32 2
-58 -3 -58 -5 0 -15 78 -22 173 -7 94 -17 176 -22 182 -5 5 -6 -64 -3 -170 l7
-180 -42 -41 c-22 -23 -41 -49 -41 -58 0 -27 39 -58 64 -52 23 6 23 5 30 -145
l7 -151 34 -36 c30 -32 37 -35 61 -27 57 21 65 47 71 224 l6 161 87 0 87 0 7
-192 c7 -207 15 -238 59 -238 13 0 36 13 51 29 29 30 33 57 52 301 5 65 8 77
27 85 12 6 29 24 37 40 12 25 15 27 17 10 1 -11 9 -103 18 -205 13 -144 21
-188 33 -200 10 -9 22 -25 28 -35 20 -35 64 -29 205 29 142 58 257 95 379 122
41 9 80 24 87 33 19 24 15 110 -7 159 -14 31 -29 47 -54 57 -32 14 -41 13
-138 -20 -57 -19 -164 -58 -240 -88 l-136 -54 -6 30 c-3 16 -6 36 -6 43 0 33
226 120 385 149 137 25 165 53 124 123 -31 52 -47 62 -98 62 -73 0 -292 -68
-401 -125 -28 -14 -28 -14 -32 21 -4 35 -2 37 39 55 46 19 194 67 368 117
l100 29 3 36 c5 52 -26 80 -81 74 -58 -6 -365 -80 -467 -113 -127 -40 -170
-99 -124 -169 l16 -25 -31 13 -31 13 -5 121 c-3 67 -9 133 -14 147 -24 61
-109 72 -151 19 -22 -28 -22 -66 -5 -234 l5 -46 -92 -11 c-51 -5 -94 -9 -95
-8 -1 1 -5 49 -8 106 -9 149 -12 163 -46 204 -35 40 -67 46 -94 19z m882 -399
c-3 -3 -12 -4 -19 -1 -8 3 -5 6 6 6 11 1 17 -2 13 -5z m112 -28 c-3 -3 -42
-19 -87 -35 -45 -17 -96 -38 -113 -46 -29 -16 -30 -15 -21 1 6 11 50 32 104
50 86 30 128 40 117 30z m-694 -22 c-72 -8 -155 -8 -155 -1 0 4 42 6 93 5 50
0 79 -3 62 -4z m545 -388 c0 -9 -113 -56 -134 -56 -11 1 11 14 49 29 73 30 85
34 85 27z"/>
<path d="M1220 2180 c-8 -5 -28 -10 -44 -10 -21 0 -27 -3 -19 -11 7 -7 28 -4
69 10 38 13 50 20 34 20 -14 0 -32 -4 -40 -9z"/>
<path d="M1095 2139 c-11 -17 -2 -18 30 -4 l30 13 -27 1 c-15 1 -30 -4 -33
-10z"/>
<path d="M1036 2123 c-3 -3 -3 -9 -1 -13 6 -9 45 -1 45 9 0 8 -36 12 -44 4z"/>
<path d="M1010 2100 c0 -5 5 -10 11 -10 5 0 7 5 4 10 -3 6 -8 10 -11 10 -2 0
-4 -4 -4 -10z"/>
<path d="M1555 2071 c-14 -44 -58 -77 -105 -79 -56 -2 -192 -36 -284 -70 -56
-21 -66 -27 -50 -34 15 -7 14 -7 -6 -4 -35 7 -87 -34 -74 -57 8 -14 13 -15 36
-3 14 8 42 19 62 26 21 7 33 16 30 22 -5 7 -2 8 5 3 7 -4 23 -3 34 3 55 27
266 93 300 94 50 1 98 -37 115 -91 17 -57 16 -145 -3 -161 -23 -19 -18 -27 15
-22 20 3 37 -2 49 -12 17 -15 17 -13 14 37 -3 28 -13 102 -24 164 -10 61 -19
116 -19 121 0 5 -13 15 -28 21 -15 6 -35 23 -44 38 -16 26 -16 26 -23 4z
m-145 -101 c0 -5 -5 -10 -11 -10 -5 0 -7 5 -4 10 3 6 8 10 11 10 2 0 4 -4 4
-10z m-350 -130 c0 -5 -5 -10 -11 -10 -5 0 -7 5 -4 10 3 6 8 10 11 10 2 0 4
-4 4 -10z m597 -32 c-3 -8 -6 -5 -6 6 -1 11 2 17 5 13 3 -3 4 -12 1 -19z"/>
<path d="M1845 1978 c10 -55 23 -271 18 -285 -3 -7 1 -13 7 -13 10 0 12 27 6
123 -8 148 -16 207 -28 207 -5 0 -6 -15 -3 -32z"/>
<path d="M1888 1908 c4 -46 7 -113 7 -150 0 -63 1 -67 20 -61 22 7 100 5 128
-3 15 -5 16 -2 6 23 -42 112 -109 248 -120 245 -7 -2 -9 4 -6 13 5 11 0 15
-18 15 l-24 0 7 -82z m29 -70 c-2 -13 -4 -3 -4 22 0 25 2 35 4 23 2 -13 2 -33
0 -45z"/>
<path d="M2130 1978 c8 -7 15 -17 15 -23 0 -5 26 -61 58 -124 31 -62 57 -123
57 -135 0 -23 20 -61 20 -38 0 7 13 12 30 12 22 0 33 -7 44 -27 26 -47 18 -18
-9 34 -30 58 -55 167 -55 246 l0 57 -47 0 c-27 0 -66 3 -88 6 -34 5 -38 3 -25
-8z"/>
<path d="M796 1912 c-2 -4 -7 -41 -11 -82 -3 -41 -8 -94 -11 -118 l-5 -43 27
17 c25 17 27 17 41 -2 14 -17 15 -11 9 61 -11 140 -18 175 -32 175 -7 0 -15
-3 -18 -8z"/>
<path d="M1513 1676 c-47 -10 -81 -26 -56 -26 28 0 32 -58 33 -451 1 -409 4
-445 36 -418 12 9 14 89 14 438 0 441 1 450 40 464 26 9 -8 6 -67 -7z"/>
<path d="M808 1670 c-3 -8 -9 -35 -12 -59 -9 -57 -29 -95 -66 -121 -34 -24
-92 -29 -115 -10 -13 11 -15 -45 -15 -461 l0 -474 111 2 110 2 -1 255 -1 256
56 0 55 0 0 -257 0 -258 110 2 110 2 3 490 c1 270 0 491 -3 491 -4 0 -10 -4
-16 -10 -17 -17 -126 -50 -166 -50 l-38 0 0 -100 0 -100 -55 0 -55 0 -2 208
c-2 114 -6 200 -10 192z"/>
<path d="M1614 1668 c-3 -4 -14 -8 -24 -8 -19 0 -19 -15 -22 -446 -3 -428 -4
-446 -22 -460 -25 -18 -37 -18 -62 0 -18 14 -19 32 -22 445 -1 237 -6 431 -10
430 -4 0 -52 -15 -107 -33 l-100 -32 -3 -389 c-3 -337 -1 -398 14 -452 20 -76
74 -143 135 -167 48 -20 167 -23 228 -6 56 15 113 68 142 133 24 51 24 56 27
440 3 385 3 387 -17 387 -12 0 -38 16 -58 35 -30 28 -38 44 -43 82 -4 39 -8
47 -28 48 -13 1 -25 -2 -28 -7z"/>
<path d="M1963 1672 l-63 -3 0 -35 c0 -19 -7 -48 -15 -64 -13 -25 -15 -99 -13
-526 l3 -496 190 1 c175 1 194 3 235 24 89 44 125 138 125 327 0 168 -29 242
-103 265 -23 7 -23 7 9 23 18 10 41 29 51 43 49 67 47 288 -3 340 -13 13 -36
40 -51 59 l-27 35 -1 -43 c0 -86 -42 -117 -140 -104 -33 5 -64 13 -69 18 -4 5
-18 37 -31 72 -12 34 -25 63 -29 65 -3 1 -34 1 -68 -1z m215 -184 c8 -8 12
-47 12 -109 0 -110 -9 -129 -63 -129 l-32 0 0 125 0 125 36 0 c19 0 40 -5 47
-12z m8 -439 c16 -18 19 -37 19 -140 0 -132 -8 -150 -72 -164 l-33 -7 0 166 0
166 33 0 c22 0 41 -8 53 -21z"/>
<path d="M2122 1378 c2 -75 6 -93 18 -93 12 0 16 17 20 76 6 95 4 109 -21 109
-19 0 -20 -6 -17 -92z"/>
<path d="M2127 1033 c-9 -15 -7 -228 2 -242 5 -8 16 -11 25 -8 14 6 16 23 14
129 -3 105 -5 123 -20 126 -9 2 -18 -1 -21 -5z"/>
<path d="M1398 1643 c7 -3 16 -2 19 1 4 3 -2 6 -13 5 -11 0 -14 -3 -6 -6z"/>
<path d="M1872 1630 c0 -14 2 -19 5 -12 2 6 2 18 0 25 -3 6 -5 1 -5 -13z"/>
<path d="M2272 1615 c0 -16 2 -22 5 -12 2 9 2 23 0 30 -3 6 -5 -1 -5 -18z"/>
<path d="M851 1457 l-2 -158 28 3 28 3 1 83 c0 61 4 87 16 98 14 15 13 18 -12
43 -15 14 -34 40 -43 56 -14 28 -15 22 -16 -128z"/>
<path d="M1018 1503 c7 -3 16 -2 19 1 4 3 -2 6 -13 5 -11 0 -14 -3 -6 -6z"/>
</g>
</svg>
