<?xml version="1.0" standalone="no"?>
<!DOCTYPE svg PUBLIC "-//W3C//DTD SVG 20010904//EN"
 "http://www.w3.org/TR/2001/REC-SVG-20010904/DTD/svg10.dtd">
<svg version="1.0" xmlns="http://www.w3.org/2000/svg"
 width="300.000000pt" height="300.000000pt" viewBox="0 0 300.000000 300.000000"
 preserveAspectRatio="xMidYMid meet">
<metadata>
Created by potrace 1.10, written by Peter Selinger 2001-2011
</metadata>
<g transform="translate(0.000000,300.000000) scale(0.100000,-0.100000)"
fill="#000000" stroke="none">
<path d="M1610 2471 l-31 -30 5 -118 c5 -99 3 -120 -11 -135 -20 -22 -49 -23
-57 -3 -3 9 -19 21 -36 26 -30 11 -41 29 -17 29 20 0 57 44 63 74 6 37 -21 91
-54 106 -47 21 -238 11 -362 -20 -19 -5 -56 -14 -82 -21 -27 -6 -48 -16 -48
-20 0 -5 -8 -9 -17 -9 -10 0 -48 -15 -85 -33 l-66 -32 -6 29 c-3 15 -6 38 -6
51 0 12 -15 38 -32 59 -44 50 -97 59 -148 24 -47 -32 -59 -73 -54 -182 2 -64
0 -94 -10 -108 -9 -12 -16 -15 -20 -9 -5 7 -13 7 -26 -2 -15 -9 -25 -9 -37 -1
-23 14 -31 45 -32 124 -1 36 -6 81 -11 100 -12 45 -70 102 -106 106 -31 3
-109 -38 -118 -62 -4 -12 -8 -171 -7 -288 0 -24 -15 -53 -45 -85 -16 -17 -24
-38 -24 -61 1 -34 28 -80 48 -80 18 0 30 -54 36 -155 3 -56 12 -116 20 -137
26 -62 85 -89 139 -63 56 26 66 57 74 212 4 90 11 142 19 150 16 17 79 17 91
1 6 -7 13 -80 16 -163 4 -82 11 -168 16 -189 8 -33 7 -43 -10 -64 -18 -24 -19
-45 -19 -477 0 -551 -14 -505 149 -505 157 0 150 -13 153 270 2 162 6 224 15
227 9 3 13 -53 15 -225 4 -287 -5 -272 148 -272 98 0 108 2 128 23 19 21 22
34 22 120 0 53 3 98 8 100 4 3 16 -23 26 -56 25 -79 97 -155 170 -180 64 -22
178 -22 241 0 67 22 136 93 164 166 11 32 21 65 22 75 0 14 2 14 9 -3 5 -11 9
-61 9 -111 1 -82 3 -93 25 -113 23 -22 28 -22 217 -19 176 3 198 5 234 25 109
58 150 172 143 394 -4 124 -12 155 -54 220 -16 25 -16 28 3 55 36 50 46 104
42 222 l-4 111 82 -6 c75 -5 87 -4 136 21 67 33 125 105 152 191 30 95 33 301
5 434 -31 155 -68 224 -146 272 -30 18 -45 21 -92 16 -88 -9 -136 -39 -186
-116 -23 -36 -51 -87 -62 -113 -23 -58 -41 -61 -81 -13 -17 19 -35 35 -42 35
-6 0 -11 3 -11 8 0 6 -19 19 -85 57 -11 7 -60 35 -109 63 -49 29 -94 52 -100
52 -7 0 -16 4 -21 8 -6 5 -30 15 -55 22 -25 8 -49 17 -55 20 -5 4 -38 8 -73 9
-57 2 -64 0 -92 -28z m182 -22 c95 -32 212 -91 318 -160 100 -65 205 -160 213
-194 4 -17 5 -16 6 5 2 42 27 111 75 210 47 95 66 125 66 103 0 -7 -4 -14 -9
-17 -9 -6 -33 -66 -27 -66 2 0 15 18 30 41 31 45 75 68 137 71 34 1 46 -4 63
-23 12 -14 30 -28 39 -32 10 -4 29 -32 43 -62 80 -175 85 -511 10 -640 -53
-90 -127 -130 -226 -123 -137 10 -213 139 -214 363 -1 103 -2 110 -17 91 -15
-18 -22 -19 -117 -10 -56 5 -102 9 -102 8 0 -1 19 -33 42 -70 87 -145 139
-289 124 -349 -6 -23 -11 -25 -59 -25 l-53 0 -78 183 c-42 100 -89 201 -102
225 -24 41 -26 42 -76 42 l-51 0 6 -77 c4 -43 10 -135 13 -206 7 -124 6 -128
-16 -152 -30 -32 -49 -31 -83 4 -21 23 -27 39 -27 72 0 61 -50 361 -62 377 -6
6 -20 12 -32 12 -16 0 -18 2 -7 9 11 7 9 10 -8 16 -35 11 -47 49 -27 80 9 14
25 25 35 25 18 0 18 3 4 66 -14 60 -14 68 1 82 13 13 14 18 2 31 -28 32 -29
59 -2 86 32 32 82 33 168 4z m-1423 -35 c34 -41 37 -55 46 -204 3 -57 7 -105
8 -106 1 -1 44 3 95 8 l92 11 -5 46 c-2 25 -7 83 -10 129 -6 81 -6 82 24 112
36 37 79 39 116 7 23 -19 28 -35 36 -102 5 -44 8 -106 7 -138 -3 -58 -3 -59
31 -73 l33 -14 -16 25 c-25 38 -20 82 12 115 33 32 155 73 345 115 65 14 139
33 165 40 101 31 156 8 150 -62 l-3 -36 -180 -53 c-194 -57 -328 -104 -326
-116 1 -5 1 -22 1 -38 0 -30 0 -30 29 -16 157 82 412 147 458 118 28 -18 64
-85 59 -108 -9 -35 -40 -50 -157 -73 -154 -30 -369 -115 -369 -145 0 -7 3 -27
6 -44 l6 -30 47 20 c68 29 317 122 383 142 73 22 103 10 136 -54 25 -50 29
-134 8 -162 -8 -11 -49 -25 -107 -38 -112 -25 -270 -77 -383 -127 -95 -43
-162 -49 -180 -18 -6 10 -19 26 -28 35 -15 14 -34 161 -50 390 l-3 35 -15 -29
c-12 -23 -37 -46 -57 -52 -2 0 -7 -65 -13 -145 -6 -79 -13 -158 -16 -176 -8
-40 -49 -83 -80 -83 -45 0 -53 31 -60 238 l-7 192 -89 0 -88 0 -1 -117 c-1
-169 -10 -221 -43 -250 -31 -26 -58 -29 -78 -9 -47 50 -48 53 -55 206 -6 149
-6 150 -29 144 -25 -6 -64 25 -64 52 0 9 19 35 41 58 l42 41 -7 180 c-9 232 8
223 25 -12 7 -95 17 -173 22 -173 5 0 6 28 3 63 -3 34 -8 112 -11 173 -6 95
-4 113 10 128 27 26 60 19 94 -20z m981 -3 c0 -5 -17 -12 -37 -16 -100 -18
-328 -77 -401 -104 -45 -16 -82 -26 -82 -21 0 23 257 105 407 130 60 10 109
19 111 19 1 1 2 -3 2 -8z m263 -389 c20 -21 30 -46 38 -92 5 -34 8 -65 5 -68
-3 -2 -1 -14 5 -25 8 -14 8 -18 0 -13 -6 4 -11 0 -11 -8 0 -10 6 -13 15 -10
12 5 15 -3 15 -43 0 -56 -4 -63 -30 -56 -17 5 -19 12 -13 63 4 44 1 71 -13
110 -19 52 -62 100 -90 100 -20 0 -17 20 8 47 28 30 38 29 71 -5z m248 -24 c0
-7 6 -67 12 -133 13 -130 12 -185 -5 -185 -5 0 -8 6 -5 13 5 14 -9 240 -18
290 -2 15 0 27 5 27 6 0 10 -6 11 -12z m86 -78 c44 -88 73 -161 73 -185 0 -23
-3 -25 -53 -25 l-54 0 -11 94 c-17 136 -16 168 5 164 9 -2 27 -23 40 -48z
m321 37 c6 -7 13 -42 16 -77 3 -36 10 -87 16 -115 17 -78 17 -80 -7 -83 -18
-3 -23 2 -23 17 0 12 -4 29 -9 39 -25 49 -61 132 -61 141 0 6 -4 11 -10 11 -5
0 -10 9 -10 19 0 11 -5 21 -12 23 -6 2 -9 12 -5 21 8 21 89 24 105 4z m-1025
-54 c-31 -13 -62 -23 -70 -23 -7 0 -22 -4 -33 -10 -11 -5 -29 -15 -40 -20 -12
-6 -26 -8 -32 -4 -16 10 20 34 51 34 21 0 23 2 11 10 -11 7 -5 10 25 10 30 0
36 3 25 10 -11 7 -7 10 17 10 17 0 35 5 38 11 4 6 13 8 21 5 7 -3 16 0 20 6 4
7 9 6 15 -3 6 -10 -7 -19 -48 -36z m-415 -90 c7 -43 12 -86 12 -95 0 -21 -35
-25 -43 -4 -7 18 4 176 13 176 3 0 12 -35 18 -77z m-7 -341 l-2 -202 55 0 56
0 0 100 0 100 38 0 c42 0 125 25 157 47 11 7 23 13 27 13 5 0 7 -221 6 -491
l-3 -491 -113 -1 -112 -2 0 258 0 257 -55 0 -56 0 2 -256 1 -256 -111 -1 -111
-2 -2 473 c-2 259 -1 472 3 472 3 0 10 -5 16 -11 18 -18 80 -13 113 11 40 28
60 70 67 136 3 32 10 53 16 51 7 -2 10 -72 8 -205z m849 163 c0 -40 5 -51 39
-85 22 -22 49 -40 61 -40 l21 0 -3 -387 c-3 -381 -3 -389 -26 -439 -47 -104
-118 -146 -248 -146 -99 0 -153 21 -206 80 -61 68 -63 81 -63 537 l0 409 100
32 c55 18 103 33 107 33 4 1 9 -193 10 -430 3 -413 4 -431 22 -445 25 -18 37
-18 62 0 18 14 19 32 22 460 3 431 3 446 22 446 10 0 22 5 25 10 3 6 17 10 31
10 22 0 24 -4 24 -45z m391 -29 c15 -38 33 -72 40 -76 8 -4 38 -10 68 -13 89
-10 131 22 131 105 l1 43 27 -35 c15 -19 37 -44 50 -56 41 -39 55 -195 27
-291 -16 -53 -61 -103 -93 -103 -9 0 1 -10 23 -23 28 -15 48 -37 65 -72 23
-46 25 -61 25 -180 0 -194 -35 -288 -125 -332 -41 -20 -61 -22 -235 -24 l-190
-2 -3 497 c-2 427 0 501 13 526 8 16 15 45 15 64 0 39 5 41 84 41 l51 -1 26
-68z m-531 -370 c0 -386 -4 -460 -24 -427 -3 4 -6 185 -6 401 -1 242 -5 400
-11 412 -12 23 -4 38 22 38 18 0 19 -11 19 -424z m-630 289 c23 -25 23 -26 7
-54 -11 -19 -17 -51 -17 -91 0 -45 -3 -61 -12 -58 -15 5 -24 228 -10 228 5 0
19 -11 32 -25z"/>
<path d="M2577 2303 c-3 -5 -15 -45 -26 -89 -27 -104 -36 -248 -22 -353 10
-76 9 -102 -3 -90 -3 2 -10 52 -17 111 -13 123 -2 252 31 347 22 62 24 73 10
51 -22 -33 -58 -169 -65 -240 -6 -68 3 -179 21 -269 7 -33 7 -34 -24 -29 -41
6 -40 -3 3 -41 47 -41 87 -45 117 -10 65 77 72 389 11 559 -18 51 -28 66 -36
53z m32 -171 c20 -83 19 -286 -3 -349 -19 -58 -51 -89 -72 -72 -11 9 -11 15 1
32 11 17 13 63 12 206 -1 137 2 186 11 189 7 2 12 14 12 26 0 25 10 40 20 29
3 -5 12 -32 19 -61z"/>
<path d="M1770 2286 c0 -9 6 -16 14 -16 14 0 26 -29 26 -67 0 -26 22 -30 40
-8 18 21 42 19 82 -8 31 -21 158 -52 158 -38 0 9 -160 95 -220 119 -88 33
-100 35 -100 18z"/>
<path d="M1152 1976 c-54 -18 -98 -39 -104 -50 -9 -16 -8 -16 19 -3 15 8 65
29 111 47 45 17 82 33 82 36 0 7 -11 4 -108 -30z"/>
<path d="M420 1983 c0 -5 28 -7 62 -5 113 5 125 9 31 10 -51 1 -93 -1 -93 -5z"/>
<path d="M1035 1569 c-45 -18 -61 -28 -45 -28 14 0 50 13 80 29 69 37 56 36
-35 -1z"/>
<path d="M2100 1375 l0 -125 29 0 c52 0 61 20 61 130 0 108 -6 120 -64 120
l-26 0 0 -125z m47 -27 c-2 -18 -4 -4 -4 32 0 36 2 50 4 33 2 -18 2 -48 0 -65z"/>
<path d="M2100 904 l0 -166 33 7 c64 14 72 32 72 164 0 137 -11 161 -72 161
l-33 0 0 -166z m64 100 c17 -45 2 -223 -18 -203 -4 3 -9 179 -7 212 2 13 19 7
25 -9z"/>
</g>
</svg>
